<svg id="logo" xmlns="http://www.w3.org/2000/svg" viewBox="0 0 435.52 127.35"><defs><style>.cls-1{fill:#996;}.cls-2{fill:#c90;}</style></defs><path id="ll" class="cls-1" d="M377.2,20.07h17.47V71.15h40.85V89.73H377.2Z"/><path id="aa" class="cls-1" d="M356.27,80.58h-39l-8,13.56L296.27,82l40.48-66.31L377.24,82l-13,12.17Zm-19.52-33-9.1,15.32h18.2Z"/><path id="dd" class="cls-1" d="M233.39,19.14c8.23-.83,15.73-1.39,22.36-1.39,34.95,0,49.15,16,49.15,37.15s-14.2,37.15-49.15,37.15c-6.63,0-14.13-.56-22.36-1.39Zm53.3,35.76c0-12.54-11.43-18.11-28.76-18.11-2.4,0-4.8.09-7.06.28V72.73c2.26.19,4.66.28,7.06.28C275.26,73,286.69,67.44,286.69,54.9Z"/><path id="ee" class="cls-1" d="M129.39,89.73H69.61V20.07h59.86V38.65H87.09v7.89h33.78V63.26H87.09v7.89h42.3Z"/><path id="pp" class="cls-1" d="M17.48,72.5V90.89H0V20.3c8.23-.83,18.93-1.39,26.8-1.39,31.23,0,41.06,12.72,41.06,27.4C67.86,61.91,56.58,73,29.78,73,25.49,73,21.26,72.78,17.48,72.5ZM49.66,46.12c0-4-4.88-8.17-21-8.17-4.22,0-8,.19-11.21.37V54c3.2.18,7,.37,11.21.37C44.78,54.39,49.66,50.12,49.66,46.12Z"/><path id="pedal" class="cls-2" d="M177.52.67C180.47-.4,183.87.11,187,.21a1.38,1.38,0,0,1,1.51,1.09,4.71,4.71,0,0,1,.11,2.08l0,.11c.28,1.65-.28,3.35.06,5,0,.34.47.28.72.25l.13.06a.72.72,0,0,0,.72.07l.51.08a.38.38,0,0,0,.52.09l.35.08a.39.39,0,0,0,.51.12l.13.05a.41.41,0,0,0,.52.1l.33.11a2.13,2.13,0,0,0,1.11.22l.11-.23.16-.44c0-.09.13-.26.17-.34V8.59l.09-.14a1.23,1.23,0,0,0,.25-.72c.31.08.41-.3.3-.52l.08-.13a1.59,1.59,0,0,1,.07-.2c0-.08,0-.24.06-.32.25,0,.36-.12.32-.39V5.86c.32-.07.38-.42.31-.69l.08-.13.08-.2,0-.16c.27,0,.36-.3.33-.53s0-.25,0-.34a.45.45,0,0,0,.26-.68L197,3a1.34,1.34,0,0,0,.11-.14l.22-.23.13-.1.13-.07a4,4,0,0,1,1.72.33,2.68,2.68,0,0,0,.76.22l.16.11.13,0,.19.12.15.07a.92.92,0,0,0,.85.45l.51,0c-.08.31.29.42.52.31l.14.07.2.08.32,0c0,.25.1.35.36.31l.35,0c0,.34.42.36.68.29l.13.08.21.08.17,0c.05.32.4.36.66.31l.15.07,1.4.83v.13a1.59,1.59,0,0,0,0,.89l-.09.13-.08.2,0,.17c-.27,0-.36.29-.32.51s0,.37,0,.49c-.33-.08-.44.31-.28.53l-.09.13-.09.21,0,.17c-.34,0-.38.41-.3.68l-.09.13-.08.2-.05.16-.12.36-.09.14a1.59,1.59,0,0,1-.07.2l0,.15a.49.49,0,0,0-.34.7l-.08.14a1.76,1.76,0,0,1-.09.2l0,.17a.43.43,0,0,0-.26.65l0,.13a.36.36,0,0,0,.37.53l.27,0c.05.07.17.19.22.26l.23.15a.69.69,0,0,0,.75.41h.15l.22.31,1,.55c0,.07.13.23.18.3l.46.24a.28.28,0,0,0,.54-.14c.37-.43.78-.82,1.18-1.21A3.55,3.55,0,0,0,211.62,14l.86-.86a.69.69,0,0,0,.66-.66l.17-.17a2.57,2.57,0,0,1,1.86-.76l.89.55a.61.61,0,0,0,.59.71,6.24,6.24,0,0,0,1.62,1.58l.12.11.12.12c0,.29.21.58.54.56a.55.55,0,0,0,.55.54l.12.09a.46.46,0,0,0,.35.37.41.41,0,0,0,.4.41l.14.12.16.16.15.16a1.59,1.59,0,0,1,.13.13.47.47,0,0,0,.43.44l.12.09c.1.2.21.4.32.59l.21.26,0,.73c-1.59,2.09-4,3.64-5.36,5.83l.27.08.15.4c0,.25.15.34.38.28l0,.15c0,.28.08.39.35.34l.21.43.12.12.07.13c-.07.25,0,.37.28.35a4.25,4.25,0,0,0,.35.58l.17.28v.14a4,4,0,0,0,.22.34c0,.06.11.17.14.23a.44.44,0,0,0,.84,0l.15-.05.2-.1.13-.1a.47.47,0,0,0,.69-.24l.15-.07a.51.51,0,0,0,.69-.3l.17,0,.2-.1.14-.1a.46.46,0,0,0,.68-.24l.15-.07c.23.12.6,0,.53-.29l.33-.06.2-.08.13-.08c.25.08.64.06.66-.28l.56-.19.3-.14a6.4,6.4,0,0,0,.88-.08.43.43,0,0,0,.51.4,1,1,0,0,0,.21.52l.11.13a1.14,1.14,0,0,0,.19.57l.2.31,0,.13.15.33a1.62,1.62,0,0,0,.23.56l.11.14a1.33,1.33,0,0,0,.19.57l.2.33,0,.13.12.16v.14c0,.1.1.28.13.37l.06.17.09.21.1.14c-.12.25-.06.62.27.66l0,.17.08.21.08.13c-.06.28-.07.71.32.73v.13a.58.58,0,0,0,.35.71l0,.13.08.2.08.15a.34.34,0,0,0,.12.49c0,.26,0,.52.05.78-.34,0-.49.33-.58.6l-.13.06-.16.07-.15.07c-.28-.08-.64,0-.7.31l-.17,0-.2.1-.14.1a.46.46,0,0,0-.69.24l-.15.07a.5.5,0,0,0-.69.29l-.17,0-.19.09-.14.08c-.23-.12-.6,0-.52.3H226c-.28,0-.39.08-.35.34l-.33.05-.19.08-.13.08c-.69-.08-1.3.48-.92,1.16l0,.15a.4.4,0,0,0,.15.5c0,.09,0,.25.05.34a.39.39,0,0,0,.12.51l.05.17a.39.39,0,0,0,.11.52c0,.12.05.38.07.52a.62.62,0,0,0,.1.7l.06.13a.68.68,0,0,0,.13.71l0,.12c0,.11.07.33.1.43,2.58.09,5.15-.28,7.74.1H233c0,.26.06.38.32.37v.14a1.94,1.94,0,0,0,.13,1v.12c.21,1.85,0,3.72.16,5.57l0,.14v.21a3.34,3.34,0,0,0-.1,2.21l0,.16a.55.55,0,0,0-.25.64l-.28.36a15.15,15.15,0,0,0-1.91.28H231a19.11,19.11,0,0,1-3.78-.13h-.12a12,12,0,0,0-2,0l-.07.27,0,.14a8.66,8.66,0,0,0-.24,1.44c0,.25,0,.5-.07.76a2.06,2.06,0,0,0-.3,1.26c0,.08,0,.24-.05.31s-.1.26-.14.35v.33c0,.09-.11.27-.15.36l0,.14c-.24.13-.23.23,0,.31l.52.24c0,.28.36.35.61.3l.58.21.14.05.34.13.13.08a1.55,1.55,0,0,0,.58.24c0,.34.39.36.64.28l.13.08.21.08.32.06c0,.24.11.34.37.3l.34,0c0,.33.43.37.67.25l.14.1.2.1.15,0a.74.74,0,0,0,.71.41l.1.09a2.14,2.14,0,0,1,.05,1.91l0,.15c-.34,0-.35.43-.26.68l0,.14-.14.19-.08.15a.59.59,0,0,0-.3.68v.15c-.25,0-.36.11-.33.38s0,.39,0,.53l-.13.16,0,.14-.12.17-.09.13c0,.06-.07.16-.09.21l-.05.16-.15.33a3.49,3.49,0,0,0-.2.57c-.35,0-.37.4-.29.65l-.08.14-.08.2,0,.17c-.33,0-.39.4-.3.67l-.08.14a4.84,4.84,0,0,0-.67,1.22h-.13a2.66,2.66,0,0,0-.89,0l-.35,0c0-.33-.36-.4-.61-.31a2.41,2.41,0,0,0-.73-.24l-.16-.11-.13-.08-.2-.08-.33,0c.08-.32-.32-.43-.53-.27l-.14-.09-.21-.1-.17,0c-.05-.32-.4-.37-.66-.33H222a.56.56,0,0,0-.71-.32l-.15,0-.19-.14-.16-.07c-.09-.28-.39-.33-.65-.31H220c-.69-.35-1.12.53-1.26,1.07l0,.14a2.22,2.22,0,0,0-.77,1,1.83,1.83,0,0,0-.21.53c-.27-.07-.39,0-.36.32l0,.13c-1.51.57.15,1.89.88,2.36l.1.07.24.28.1.07a39.13,39.13,0,0,0,3.4,3.54c0,.28,0,.57,0,.86-2.27,2.31-4.73,4.48-6.8,7l-.52,0h-.14l-.54-.07-.09-.12a2.5,2.5,0,0,0-.69-.56.32.32,0,0,0-.37-.34,4.86,4.86,0,0,0-1.53-1.53.44.44,0,0,0-.5-.5,8.27,8.27,0,0,0-2.06-2.07c-1.1,0-2.28,1.12-3.08,1.9l-.27,0-.21.29a1.08,1.08,0,0,0-.71.39.25.25,0,0,0,0,.49V88l.08.2.09.14.12.36,0,.16.08.2.08.12c-.06.26,0,.62.3.68l0,.16c.11.39.05.94.51,1.11v.12a.55.55,0,0,0,.34.68l0,.14.08.22.1.14a.49.49,0,0,0,.33.69v.14c-.05.26,0,.59.26.69l.08.16a4.6,4.6,0,0,0,0,.91v.14c-.32-.07-.51.2-.62.44l-.11.09-.15.14-.15,0a.53.53,0,0,0-.71.33l-.13,0-.16.12-.52,0c-.27,0-.4.08-.38.33h-.15a.62.62,0,0,0-.71.35l-.13,0-.17.12H203a.66.66,0,0,0-.75.33h-.13a.59.59,0,0,0-.69.29l-.15.08-.18.13h-.15a.64.64,0,0,0-.74.33l-.13,0-.16.12-.13,0a.66.66,0,0,0-.77.34l-.11,0a11,11,0,0,1-1.4.19l-.09-.1a2.58,2.58,0,0,0-.73-.81,1.29,1.29,0,0,0-.24-.71l-.09-.14c0-.08-.05-.24-.07-.32l-.09-.21-.08-.14-.12-.18,0-.14-.12-.16c0-.14,0-.4,0-.53,0-.33-.09-.71-.44-.81a2,2,0,0,0-.24-.58L195,94.2c0-.08,0-.24-.06-.31a.81.81,0,0,0-.3-.59v-.13l-.18-.32-.21-.69c0-.44-.53-.48-.81-.23h-.14l-.34.16-.34.07a4,4,0,0,0-1.42.25l-.31.09a.61.61,0,0,0-.68.1l-.12,0c-.53.06-1.34-.17-1.53.52a45.75,45.75,0,0,1,0,7.31c-.27,0-.36.25-.35.46l-.15.21-.31.17a61.58,61.58,0,0,1-9.41,0,.33.33,0,0,0-.48-.15l-.21-.2c-.4-.76,0-1.64-.29-2.42l-.08-.28a48,48,0,0,1,.19-4.8c.13-.94-1.09-.79-1.69-.81l-.31-.06a.39.39,0,0,0-.49-.12h-.32a2.87,2.87,0,0,0-1.41-.33l-.3-.06a1,1,0,0,0-1.69.76l0,.13-.12.12a1.86,1.86,0,0,0-.25.6l-.16.33,0,.14-.11.13a1.53,1.53,0,0,0-.26.75l-.11.17,0,.13-.12.19-.07.16-.17.37v.15l-.11.17-.08.13a1.89,1.89,0,0,0-.09.21l0,.17c-.34,0-.41.42-.28.68l-.1.12a2.07,2.07,0,0,1-.08.2c0,.09-.05.25-.07.33a2.64,2.64,0,0,0-.78.88l-1,0-.32-.15h-.13a.56.56,0,0,0-.71-.33l-.13-.08-.2-.09-.15,0a.61.61,0,0,0-.72-.3h-.15l-.18-.13-.16-.08a.59.59,0,0,0-.68-.3h-.15l-.13-.11a1.65,1.65,0,0,0-.76-.26l-.17-.11-.13,0-.19-.13-.16-.07a.92.92,0,0,0-.86-.45l-.35,0c0-.34-.42-.36-.67-.29L160,96l-.2-.09-.16,0-.37-.17h-.14l-.17-.13-.14,0-.19-.08a3.37,3.37,0,0,1-.25-1.26c0-.1-.08-.28-.1-.37a2.62,2.62,0,0,0-1.2,1.17c-.25.21-.51.4-.76.6A28,28,0,0,0,152,99.76l-.42.25a7.86,7.86,0,0,0-2,1.92l-.57.46a7.72,7.72,0,0,0-2,1.93c-.27.24-.54.48-.79.74a4.23,4.23,0,0,0-1.59,1.44l-.37.39c-.24.1-.2.51.1.46l.5.05.32,0,.51,0a2,2,0,0,0,1,0,4.17,4.17,0,0,0,1.17,0,1,1,0,0,0,.87-.19,2.41,2.41,0,0,0,.85,0l.34.18a6.77,6.77,0,0,0,1.26-.15l.13,0,.17.06c.5,0,1,0,1.5,0a.36.36,0,0,0,.5.17l.33.07a.42.42,0,0,0,.52.09l.13,0,.42.13.29.06.14.08a3,3,0,0,0,.58.25c0,.21.14.3.36.25l.28.14.19,0,.13,0,.22.32.27.06a.31.31,0,0,0,.38.33l.32.2a3.31,3.31,0,0,0,1.16,1.19l.2.31a.31.31,0,0,0,.35.36v.13a.31.31,0,0,0,.32.38c0,.08.15.25.21.33a3.72,3.72,0,0,0,.19.34v.13l.07.2.08.14c-.11.23,0,.59.31.52,0,.13,0,.39.06.52s0,.14.06.19l.08.12a.43.43,0,0,0,.11.52l.06.18a1.13,1.13,0,0,0,.1.86c0,.12.06.35.09.47,0,.47,0,1,0,1.42,0,.11-.08.35-.1.47a1.25,1.25,0,0,0-.1.85c0,.09,0,.26,0,.35a.66.66,0,0,0-.3.69c0,.13,0,.39,0,.52l-.15.16-.08.17a.61.61,0,0,0-.28.68V122l-.26.23-.16.22a2.72,2.72,0,0,0-.59.94l-.06.11a1.64,1.64,0,0,0-.79.91l-.3.21a.35.35,0,0,0-.36.48,2.63,2.63,0,0,0-.54.18l-.16.31h-.16a.62.62,0,0,0-.72.49h-.14c-.26,0-.61,0-.66.33l-.17,0-.21.08-.13.07c-.32-.07-.81-.1-.87.33h-.52a.74.74,0,0,0-.69.1l-.3.09a6.55,6.55,0,0,0-1.4.09h-.14c-17.57.23-35.22,0-52.82.1a59.6,59.6,0,0,1-8-.4l-.14,0a.43.43,0,0,0-.51-.11l-.17-.07-.37-.1-.16,0-.34-.15h-.14l-.16-.11-.55-.28-.12-.06-.54-.28a2.29,2.29,0,0,0-1-.8l-.11,0a3.79,3.79,0,0,0-1.1-1.12c0-.08-.13-.25-.17-.33s-.22-.18-.3-.23l0-.27-.28-.25a2.5,2.5,0,0,0-.09-.25,2.27,2.27,0,0,0-.61-1.09l-.06-.16-.09-.19-.08-.13a.37.37,0,0,0-.11-.53l0-.16A1.39,1.39,0,0,1,83,120l-.11-.32a.7.7,0,0,0-.11-.71l-.08-.3a1.2,1.2,0,0,0-.1-1,2.91,2.91,0,0,0,0-.3c.13-.82.12-1.65.31-2.46v-.31c.38-.08.42-.51.28-.8a3.66,3.66,0,0,0,.27-.61c.31,0,.34-.38.27-.62l0-.14.15-.12.24-.42.11-.11.19-.41a.32.32,0,0,0,.39-.29c.15-.23.32-.46.48-.69a.32.32,0,0,0,.35-.36.9.9,0,0,0,.68-.53c.23,0,.35-.06.35-.3l.36-.24c.2.18.55,0,.42-.26l.57-.28.14,0,.29-.07c.23,0,.5,0,.56-.29l.14,0,.35-.15.16,0a2.84,2.84,0,0,0,1.4-.31,21.53,21.53,0,0,1,2.54,0,1.33,1.33,0,0,0,.85-.18c5.54.06,11.11-.14,16.64.1l.17,0c1.07.28,1.64-.93,2.24-1.6a.76.76,0,0,0,.65-.64,8.54,8.54,0,0,0,.71-.88.79.79,0,0,0,.65-.65,6,6,0,0,0,.85-1c.25,0,.36-.12.33-.36l.21-.2a.76.76,0,0,1,.09-.09,5.59,5.59,0,0,0,.93-1.07.76.76,0,0,0,.65-.63,8.44,8.44,0,0,0,.7-.88.53.53,0,0,0,.49-.48,10.54,10.54,0,0,0,.87-1,2,2,0,0,0,.84-.85c.25-.27.47-.57.69-.86a.56.56,0,0,0,.49-.49,6.11,6.11,0,0,0,.85-1A.42.42,0,0,0,124,94,3.85,3.85,0,0,0,125,92.79c.31.08.49-.19.51-.46a5.79,5.79,0,0,0,.87-1,.51.51,0,0,0,.49-.47,6.73,6.73,0,0,0,1-1.23.44.44,0,0,0,.47-.51l.22-.2.09-.09a4.17,4.17,0,0,0,.59-.74.66.66,0,0,0,.64-.64,5.45,5.45,0,0,0,.88-1,.52.52,0,0,0,.5-.48c.26-.3.55-.6.8-.91a2.53,2.53,0,0,0,.74-.79c.11-.13.21-.25.32-.36,2.5-2.26,4.6-5,6.93-7.5.35-.65,1.55-1.07,1.1-1.92-.94-.35-2.2,1-3-.06-1-3.06-3-5.86-3.39-9,2-1.46,4.73-1.91,6.87-3.21.76-1.4-.53-3-.4-4.45s-1.44-1.72-2.52-1.51c-2-.39-4.65.78-6.25-.75a38.57,38.57,0,0,1,.16-9.9l.36-.26c1.8,0,3.62-.46,5.42-.05,1,0,2.8.44,2.51-1.14,0-.07,0-.22.05-.3a.69.69,0,0,0,.1-.68l.08-.33a4.53,4.53,0,0,0,.28-1.41c0-.09,0-.25,0-.33s.08-.26.11-.35l.07-.15c.18-.26.35-.58.15-.87l0-.11a.48.48,0,0,0-.7-.33l-.14,0-.17-.12-.13,0-.33-.19a1.52,1.52,0,0,0-.57-.21l-.12-.09a1.6,1.6,0,0,0-.59-.24l-.33-.16h-.14l-.13-.11a1.27,1.27,0,0,0-.73-.24c.09-.31-.3-.42-.52-.3l-.13-.07-.21-.08-.31-.07-.14-.1a1.79,1.79,0,0,0-.59-.24c0-.34-.39-.37-.63-.27l-.11-.07a.37.37,0,0,0-.39-.37l-.05-.12a5.35,5.35,0,0,0,0-1.2l0-.16.15-.17.09-.17a.64.64,0,0,0,.29-.68v-.15l.11-.13a2,2,0,0,0,.27-.77l.11-.17,0-.13a1.74,1.74,0,0,1,.11-.18l.09-.13c0-.06.07-.16.09-.22s0-.24.07-.32l.09-.13a1.27,1.27,0,0,0,.24-.73c.31.09.41-.3.29-.52l.08-.13a1.59,1.59,0,0,0,.07-.2c0-.08,0-.24.06-.32.32.08.4-.31.35-.54v-.16c.34,0,.38-.43.26-.68l.09-.14a1.86,1.86,0,0,0,.1-.2l.05-.18c.31-.07.34-.41.31-.67v-.14l.15-.12.37-.3a.36.36,0,0,0,.53-.14l.32,0,.39.18.15,0c0,.33.41.4.68.28l.13.09.2.09.16.05.37.12.13.08.2.09.17,0c.07.31.41.35.68.32l.13,0,.19.11.17.08c.09.31.42.36.7.31H144a.32.32,0,0,0,.39.31l.48.06.13.11c.18.1.37.19.55.27a.38.38,0,0,0,.67.15,3,3,0,0,0,.54-.73c.23,0,.34-.09.32-.34l.07-.1a.76.76,0,0,0,.41-.75v-.15a.44.44,0,0,0,.47-.62c.06-.1.19-.28.26-.37a.49.49,0,0,0,.46-.55v-.13a.29.29,0,0,0,.17-.54,10.17,10.17,0,0,0-.9-.84l-.34-.24-.12-.12-.11-.12a2.13,2.13,0,0,0-.91-.92.59.59,0,0,0-.51-.59l-.23-.38a5.11,5.11,0,0,0-1.12-.89,4.23,4.23,0,0,0-.77-.92,3.33,3.33,0,0,1-.12-1.44c1.39-1.33,2.78-2.69,4.09-4.1l.2-.29c1-.62,1.61-1.61,2.51-2.3,1-.17,1.55.74,2.28,1.22l.1.06a.39.39,0,0,0,.4.45l.1.07a3.39,3.39,0,0,0,1.27,1.28l.1.07a.38.38,0,0,0,.39.45l.1.07c.52.8,1.83,2.46,2.59,1l.36-.25.11-.07.56-.44.16-.1.14-.08.15-.08.42-.24.12-.07.38-.26a.86.86,0,0,0,.14-.13h.15c.26,0,.38-.11.38-.38l.12-.13a.47.47,0,0,0-.12-.84c0-.08,0-.25,0-.34s-.06-.51-.33-.53l0-.16-.09-.2-.1-.14c.12-.24.08-.64-.25-.67l0-.34c0-.23,0-.5-.32-.52l-.05-.17-.09-.2-.1-.13c.12-.25.08-.65-.26-.67,0-.09,0-.26,0-.34s-.05-.51-.32-.53l0-.16-.07-.19-.07-.13c0-.08-.1-.26-.14-.35l-.06-.17a1.06,1.06,0,0,0,0-.68l.24-.44a.68.68,0,0,0,.67-.43l.15,0,.21-.09.14-.1c.25.12.63.06.66-.27l.17,0,.2-.07.14-.07.37-.15.16-.05.19-.08.13-.08c.23.12.61,0,.53-.3l.34-.06.2-.07.13-.08c.25.07.64.05.67-.29l.34,0c.22,0,.52-.06.52-.33l.17,0,.19-.08.14-.07c.22.11.61,0,.53-.3h.33c.23.07.62,0,.52-.34l.33,0,.2-.08.12-.08a8.7,8.7,0,0,0,1.25,0l.14,0A.39.39,0,0,0,169,3l0,.17.08.2.08.13c-.08.27,0,.61.27.7l.06.15c-.08.22,0,.58.31.51,0,.08,0,.26.06.34a1.29,1.29,0,0,0,.07.21l.08.13c-.07.26-.05.65.29.67,0,.09,0,.26,0,.35s.05.51.32.52l0,.17.08.19.08.14c-.12.22,0,.6.3.51a1.14,1.14,0,0,0,.24.73l.09.13a2.77,2.77,0,0,1,0,.3c.06.09.17.28.22.37l.11.05a.62.62,0,0,0,.85-.14l.32-.08a.46.46,0,0,0,.54-.12l.14-.06a.77.77,0,0,0,.69-.09l.33-.09.34-.1.52-.07a.71.71,0,0,0,.69-.09l.14-.06a.38.38,0,0,0,.51-.11l.38-.38c.16-2.48,0-5,.11-7.49l.1-.09m2.25,2a5.14,5.14,0,0,0,.11,2.17,3.4,3.4,0,0,0,0,2.25l0,.35c-.28-.12-.51.44-.18.51l0,.15v.12a12.78,12.78,0,0,1,0,1.75,9.23,9.23,0,0,1-1,.83l-.14.08c-.26-.08-.83-.2-1,.08l-.42.08c-.15-.13-.61-.16-.62.07l-.37.12c-.16-.11-.63-.2-.63.07l-.41.07-.29.1-.38.06c-.23-.14-.4-.11-.49.09l-.17.05c-.25-.12-.42-.07-.5.13l-.18.05c-.24-.12-.41-.09-.5.11l-.16.07c-.24-.13-.42-.1-.53.09l-.21.08q-.33-.19-.45.09H171q-.14-.27-.48-.12l-.17,0c0-.26-.17-.76-.48-.77l-.06-.39c.07-.3,0-.4-.3-.32a.84.84,0,0,0-.23-.76l-.13-.11,0-.15c0-.08-.07-.24-.1-.32l-.08-.19L168.8,9l0-.18-.16-.15a.77.77,0,0,0-.22-.73,1.7,1.7,0,0,1-.1-.14l0-.17c.06-.24-.05-.69-.35-.67V6.75l-.14-.14a.7.7,0,0,0-.24-.77l-.1-.12a.44.44,0,0,0-.68-.44l-.15.1-.16,0s-.1.11-.14.15a.76.76,0,0,0-.74.22l-.14.11h-.18l-.16.17-.15,0-.32.12-.22,0-.19.08-.11.09c-.23-.07-.67,0-.67.3l-.19.06-.37.15h-.32q-.42-.1-.39.33H162c-.23-.13-.72,0-.63.32l0,.32,0,.13a2,2,0,0,0,.26.58l.13.15,0,.14c-.13.23,0,.7.31.68l0,.17c-.05.21,0,.73.34.63l0,.21.08.21.11.13c-.18.23,0,.73.31.69l0,.17c-.07.22,0,.73.33.64l0,.2a2,2,0,0,1,.1.21l.12.15c-.17.18,0,.74.25.61l.08.2A1.27,1.27,0,0,0,164,14a1.6,1.6,0,0,1-.21,1.44,1.53,1.53,0,0,1-.11.16h-.13l-.18.05-.33.14-.19.29h-.18c-.24,0-.69.12-.68.4l-.29.19-.17.26h-.2c-.23-.07-.8.14-.64.43l-.39.27c-.28-.09-.4,0-.35.28l-.29.07-.24.28-.27.07c-.29,0-.67.31-.53.6l-.33.07c-.26-.11-.5.3-.33.5h-.17l-.2.06-.12.12a4.15,4.15,0,0,1-1.31-.18l-.09-.07a34.8,34.8,0,0,0-4.76-4.72l-.08-.1h-.37c-1.54,1.18-2.81,2.76-4.24,4.09a3.71,3.71,0,0,0,0,.58l.1-.09c.37.31.67.67,1.06.95l.22.28a11.74,11.74,0,0,0,1.14,1.09c.05.06.16.2.22.26a11.74,11.74,0,0,0,1.13,1.1l.23.26a5.39,5.39,0,0,0,.76.75c.63.83.13,1.66-.37,2.4l0,.15c-.27,0-.66.26-.59.56l-.11.29c-.21-.13-.55.19-.4.4,0,.07-.07.21-.1.28l-.26.24-.12.28c-.3-.05-.48.42-.43.67l0,.18c-.62,0-.69.79-.92,1.23l0,.16c-.32-.13-.51.42-.4.65l-.28.14a2,2,0,0,1-1.42.18H146l-.16-.12-.18-.07c.08-.31-.44-.41-.63-.25a.66.66,0,0,0-.59-.24c.13-.33-.44-.45-.62-.25l-.14-.13-.19-.09-.21,0c.1-.26-.31-.4-.49-.29l-.33-.09-.17-.06-.19-.09-.33-.1-.13-.11-.19-.09-.21,0c.1-.33-.45-.44-.64-.26l-.14-.12-.17-.1-.14,0c-.36-.38-.82.37-.7.73V30l-.16.15,0,.18c-.3,0-.42.46-.29.68l0,.15c-.29-.12-.48.35-.3.55l-.07.18-.16.33v.16l-.1.14a.72.72,0,0,0-.23.7c-.29-.15-.48.33-.3.52l-.09.13-.09.18-.06.17a.53.53,0,0,0,.24,1l.36.06c-.1.32.43.42.64.28l.13.1.19.08.2,0,.3.13a.69.69,0,0,0,.58.21c-.12.32.43.43.63.28l.13.11.2.08.2,0c-.1.25.31.4.49.29l.33.08.18.07.18.08.32.12.14.12.2.06.16,0c.19.41.65.56,1,.79l.13.29a.81.81,0,0,0,0,.86l0,.15a1.58,1.58,0,0,0-.33,1.25l-.06.17c-.21.08-.25.24-.12.47l-.07.22c-.2.09-.23.25-.08.49l-.08.16c-.25,0-.24.49-.1.66V43a2.51,2.51,0,0,0-.36,1.57,1.51,1.51,0,0,0,0,.76c-.28,0-.23.45-.1.6l-.1.14c0,.56-.51.92-.59,1.44a62.9,62.9,0,0,1-7.52.06l-.09.09c0,.49-.24,1.15,0,1.55l.09.14-.13-.06a20.7,20.7,0,0,1-.08,4.45,3.3,3.3,0,0,1,.22.3c2.55,0,5.14-.49,7.62.24l.16,0,.14.1v.11c-.22,2.9,1.15,5.64,1.28,8.45-2,1.62-5,1.78-7,3.57.4,1.65,1.37,3.26,1.93,4.91a1.25,1.25,0,0,0,2,.66c1.66-1,3.81-1.2,5.19-2.61,1.42-1.84,3.42-3.34,4.45-5.42a17.58,17.58,0,0,1-1-8.68v-.18c.21-.07.26-.24.14-.49l.07-.13a1.89,1.89,0,0,1,.06-.18c0-.1.05-.31.07-.41.32.09.42-.43.28-.64l.1-.13.09-.18,0-.19.16-.27c.06-.11.17-.33.23-.43s0-.14.07-.18l0-.12c.27,0,.39-.08.35-.36l0-.16.12-.12.25-.42.12-.08c.25-.11.62-.38.53-.7a1.87,1.87,0,0,0,1.06-1,.71.71,0,0,0,.5-.39c.2.19.59-.11.45-.35l.25-.16.13-.08.41-.25a1.12,1.12,0,0,0,.13-.16h.16c.26,0,.8-.16.75-.48l.46-.23.31-.14h.17l.15-.15.32,0,.34-.1.22-.08.14-.14.34,0a3.54,3.54,0,0,0,1.53-.29,1.09,1.09,0,0,0,.69-.07c.74.06,1.48,0,2.22,0l.56.05V46a1.06,1.06,0,0,0,.84,0l.12,0,.35.13.54,0,.14.12.17.1c.62.46,1.46-.42,1.7-1a2.17,2.17,0,0,0,.71-.88c.22.1.56-.21.44-.44a2.35,2.35,0,0,0,.68-.76c.28-.09.27-.18,0-.27V43l-.26-.1a4.09,4.09,0,0,0-1.6-1l-.13,0-.12-.11-.09-.13-.28-.25-.37-.17-.15-.12,0-.15a2.23,2.23,0,0,0-1-1,.48.48,0,0,0-.25-.44c.14-.24-.29-.51-.47-.33V39l-.09-.19-.13-.13-.26-.21v-.15l-.12-.13a4.87,4.87,0,0,0-.31-.6l-.06-.13-.12-.3c.06-.25,0-.38-.28-.39l0-.15-.08-.2-.12-.14c0-.08-.08-.23-.1-.31l-.06-.21c0-.07-.11-.22-.14-.29s-.06-.45-.07-.6a1,1,0,0,1-.06-.16l-.06-.12c.12-.25.07-.42-.14-.49,0-.14-.05-.43-.07-.58s.16-.74-.14-.79c0-.88,0-1.76,0-2.63.29-.08.23-.6.16-.84l.06-.17a1.39,1.39,0,0,0,.24-1v-.53c.49-.19.46-.82.58-1.25l0-.13.15-.32c.06-.09.18-.28.25-.37a.75.75,0,0,1,.06-.13c.1-.18.2-.36.29-.54s0-.11.07-.14l.09-.17c.26.08.55-.28.46-.53v-.18c.26.08.37,0,.33-.25.19-.08.42-.32.34-.55a2.42,2.42,0,0,0,1.24-1.24c.31.08.59-.26.68-.52l.24-.14.3-.21.08-.13.44-.22c.17.21.58-.05.44-.29l.16,0,.14-.15h.17l.21-.08.14-.12c.2.13.72.05.66-.26l.18,0,.33-.13.17-.06.34-.07.21-.07.29-.16a2.93,2.93,0,0,0,.72-.07l.34-.11.17,0c.53-.21,1.33.12,1.72-.22.35,0,.7,0,1,0a1.39,1.39,0,0,0,1.17.09H177c.08.27.25.31.5.14a3.54,3.54,0,0,0,.73.07l.33.17.17.05.34.11.18.05.31.13h.15c0,.31.46.4.71.29l.14.05c-.12.26.31.59.53.39l.38.14c-.1.24.27.49.48.43l.32.08c0,.06.14.19.18.26l.34.08c-.12.28.26.66.54.54a11,11,0,0,0,1,1,1.27,1.27,0,0,0,.88.9l0,.1c0,.09.17.25.22.34l.16.09.12.11.06.15.12.16v.15a1.89,1.89,0,0,1,.09.21l.11.18c-.12.26.13.75.45.66a.62.62,0,0,0,.24.67c-.12.22-.07.7.25.68l.06.17c-.1.3,0,.88.28,1l0,.38a18.25,18.25,0,0,0,.34,2c0,.45,0,.9,0,1.35-.31.32,0,1-.14,1.43l-.07.14c-.23,0-.17.49-.1.68s0,.24,0,.32c-.41,0-.48.59-.3.87l-.08.13-.15.39,0,.16c-.32-.06-.45.42-.34.66l0,.15c-.27-.11-.42.34-.26.52l-.14.14L186,38v.17c-.43-.16-.71.56-.38.74a.78.78,0,0,0,.59.25c-.13.25.29.42.48.29l.31.09.15.06a2.7,2.7,0,0,0,.56.29l.15.06L188,40l.18.28.33.13.2.05h.15c-.14.35.33.75.65.59l.44.27c-.14.33.48.25.33,0l.06-.1.16-.35.06-.19c0-.08.08-.25.11-.33l0-.18c0-.07.1-.22.13-.3l.06-.22c0-.08.05-.23.06-.31l.12-.14.09-.2,0-.22c.29.11.4-.42.27-.61l.05-.16c.34.06.57-.4.51-.68v-.17l.16-.08c0-.13.14-.38.19-.5l.11-.07a.46.46,0,0,0,.41-.58c.27.08.37,0,.32-.28a4.7,4.7,0,0,0,.73-.75l.1-.1.23-.23c.24.12.56-.19.5-.43l.4-.21c.26,0,.33-.07.23-.33l.42-.23a3.69,3.69,0,0,0,1.8-1l.2,0,.19-.07.12-.1c.25.08.85.09.81-.28l.4-.07.35-.14.12-.06c.26.16.43.12.54-.11l.36,0a.87.87,0,0,0,.8,0l0-.06a1.38,1.38,0,0,0,.72-.13,1.56,1.56,0,0,0,1.2,0c.3,0,.6,0,.9,0,.07.29.57.23.81.16l.38.05c.08.2.25.25.5.13l.11.07.17.06.51.05c.28.42.86.34,1.28.53h.13c0,.24.1.32.35.23l.32.19.2,0h.17a1.53,1.53,0,0,0,.11.16l.14,0c0,.28.12.38.4.3l.35.25c-.05.3.41.52.65.58l.11.09a8.51,8.51,0,0,0,1.4,1.21c0,.08.13.25.18.33l.25.26.11.1.16.07.19.41q-.09.39.3.27l.24.43.13.11,0,.16c0,.33.1.91.53.86l.05.15c-.17.19-.06.73.24.67l.1.19c0,.09,0,.27.05.36l.1.14c-.13.31-.07.89.29,1l0,.36a9.44,9.44,0,0,1,.18,2.37l.16,0c0,.29,0,.58,0,.87-.3.33-.05,1-.17,1.41l0,.15c-.26.08-.3.25-.12.49,0,.14,0,.42-.06.56l-.17.3v.14c-.22.12-.25.3-.11.54l-.12.14-.09.19,0,.21c0,.07-.1.22-.14.29a.74.74,0,0,0-.2.59c-.29-.08-.54.41-.38.63-.05.08-.15.25-.21.33l-.05.2v.17l-.12.1,0,.11a2.38,2.38,0,0,0-1.15,1.34,11.08,11.08,0,0,1-1.23,1.24c-.3-.14-.59.28-.57.55l-.14,0a3.13,3.13,0,0,0-1.26.82l-.26.2c-.2-.23-.66.11-.52.37l-.49.11q-.39-.13-.3.24h-.35a19.21,19.21,0,0,1-10.13-.5h-.14l-.31-.17-.39-.23-.17-.06-.19-.1-.12-.1-.11,0c0-.48-.57-.3-.83-.12-.25,1.39-.84,2.77-1.2,4.11,1,1.26,2.81,1.36,3.93,2.53,5.18,3.89,6.12,12,2.36,17.13-2.06,3.3-5.94,4.71-9.59,5.35-5.06-.1-10.28-2.94-12.13-7.88-.54-1-1.46.15-2,.59-2.92,3.06-6.43,5.59-9,8.9l-.12.11-.11.12a1,1,0,0,0-.55.42,4.65,4.65,0,0,0-1.9,1.83,1.62,1.62,0,0,0-.75.6,1.57,1.57,0,0,0-1.09,1.26.73.73,0,0,0-.19.59c-.32-.13-.45.43-.25.61l-.14.16-.08.2v.19c-.34-.08-.51.43-.33.67l-.1.13-.08.18-.05.19a.91.91,0,0,0,.58,1.69l.13,0a1.34,1.34,0,0,0,.14.11.7.7,0,0,0,.7.23c-.16.29.33.48.52.3l.12.09.19.08.37.07c-.08.26,0,.35.31.27l.39.06c-.09.32.46.43.64.24l.14.12.2.1.21.06c-.1.36.66.48.73.16l.24-.43c0-.08.12-.22.15-.29v-.15l.11-.13a.82.82,0,0,0,.24-.74c.28.18.49-.32.3-.51l.09-.12.08-.19c0-.09.05-.28.07-.37.26.08.35,0,.27-.31,0-.1,0-.3.06-.4.32.09.41-.44.27-.64l.1-.13.09-.18c0-.1,0-.3,0-.4l.16-.13,0-.18a1.53,1.53,0,0,1,.11-.16l.09-.15s.06-.14.09-.19l0-.2.09-.32.11-.12.12-.14.22-.29.11-.13h.14a1.67,1.67,0,0,0,.94,0l.17.08.31.14.18,0c.1.19.27.22.5.11h.33l.34.14.21.07c.09.21.25.23.49.08l.35.09.3.12.34,0a2.9,2.9,0,0,0,1.57.3l.35.06c.1.23.59.18.82.07l.17.1a1.08,1.08,0,0,0,1,0l.16.09c.78.62.32,1.7.87,2.39.09.42-.39,1.07,0,1.33l0,.14c0,.37,0,.73,0,1.1-.32-.07-.5.56-.16.63,0,.25,0,.49,0,.73v1a.49.49,0,0,1,0,.12c0,.28,0,.6.35.68,1.1.54,2.66-.34,3.87.16v-.13l.15,0a8.68,8.68,0,0,0,1.85.06l.22-.29v-.16a9.55,9.55,0,0,0-.15-3.91v-.13c.67-.91-.1-2.53.51-3.65l.14,0,.19-.09.12-.14a1.16,1.16,0,0,0,1,0l.18-.09a.91.91,0,0,0,.82,0v0l.35-.06a3.27,3.27,0,0,0,1.58-.28l.18-.08c.22.15.37.11.45-.09l.36-.1c.24.15.4.12.48-.08l.21-.07.32-.16a.89.89,0,0,0,.73,0c.17.12.63,0,.55-.27a5.46,5.46,0,0,0,1.07,0c-.13.27.26.53.5.55l.11.11c-.2.19,0,.69.29.5,0,.1,0,.29.05.38a1.74,1.74,0,0,0,.1.19l.13.15c-.19.16-.08.7.22.59,0,.11.05.32.07.42-.15.16,0,.58.27.46l.06.21.08.19.09.13c-.18.19,0,.68.3.52a.71.71,0,0,0,.19.69.94.94,0,0,1,.1.1c0,.1.1.31.14.41A1.09,1.09,0,0,0,198,95l.08.32c-.13.17.05.61.3.48-.13.51.6.7.88.39l.25-.17a.53.53,0,0,0,.55-.24c.23.2.73,0,.68-.31l.15,0,.2-.06.14-.1.31-.15.21,0,.2-.09.14-.13c.16.24.69,0,.51-.25a.84.84,0,0,0,.69-.2l.29-.15.19,0,.18-.05.36-.3c.28.08.27-.51,0-.44,0-.09,0-.27,0-.35s-.06-.59-.28-.44v-.2c-.09-.41-.18-.89-.59-1.1v-.13c.18-.18,0-.65-.28-.47l0-.38c0-.05-.07-.14-.09-.18l-.1-.13c.14-.21.06-.73-.26-.67l-.08-.17c.17-.18,0-.68-.25-.54,0-.09,0-.26-.07-.35a1.74,1.74,0,0,1-.1-.19l-.12-.13c.2-.2.06-.78-.27-.63a5.92,5.92,0,0,1,0-.94,1.66,1.66,0,0,0,.06-.16l.09-.13q.42,0,.36-.39h.12l.17-.06c.1-.08.3-.24.39-.33.13.25.69,0,.44-.21a2.12,2.12,0,0,0,.95-.6l.13-.14.12,0c.2.11.61-.08.46-.34l.41-.16c.71-.31,1.72-.72,1.88-1.57.24.11.46-.18.56-.37l.12-.08h.16a9.9,9.9,0,0,0,1.21-.06l.14.07.25.27.31.23.21.28a12.25,12.25,0,0,0,1,.92l.19.29.12,0,.23.26c.55.54,1.08,1.1,1.65,1.6l.22.27a4.71,4.71,0,0,0,.84.77c0,.34.72.1.54-.21a4.11,4.11,0,0,0,1.47-1.57l.13-.11.12-.14c.31,0,.43-.08.37-.36a1.8,1.8,0,0,0,1.08-1.08.52.52,0,0,0,.1-.11.47.47,0,0,0,.56-.52c.21.21.49-.29.18-.33l-.1-.09a28.1,28.1,0,0,0-4.89-4.8l-.06-.16a1.67,1.67,0,0,1-.05-.18,2.15,2.15,0,0,1,0-1.07c0-.05.05-.13.06-.18l.09-.16.13-.08.22-.31c.24.14.42-.27.25-.43l.31-.2.08-.17,0-.12c.46,0,.61-.5.73-.86a1.13,1.13,0,0,0,.39-.53c.31,0,.48-.42.44-.68v-.17c.27,0,.39-.06.36-.34v-.18c.33.08.5-.45.41-.7l.13-.15.13-.1c0-.11.13-.33.18-.44l.14-.24.19-.08c.18.11.56-.1.4-.32a1.3,1.3,0,0,0,.85,0c-.14.22.26.45.43.3l.41.08c-.1.32.45.43.64.24l.14.13.2.09.22,0c-.1.32.43.42.64.29l.14.09.19.09.21.06c-.09.3.42.4.64.31l.22,0c-.1.3.44.37.63.24l.16,0,.17.16.18,0,.18.12.19.07.32.14h.15l.14.08a.34.34,0,0,0,.52-.34l.17-.28v-.15q.4.11.3-.33c0-.09,0-.29.05-.39l.16-.31v-.17l.11-.14a.73.73,0,0,0,.23-.7c.28.16.47-.33.29-.52l.09-.13a1.51,1.51,0,0,0,.09-.18c0-.09.05-.28.06-.37.26.08.35,0,.27-.32,0-.1.06-.3.07-.4.3.1.4-.43.26-.62l.07-.17v-.14l-.12-.14c.07-.34-.5-.43-.75-.37h-.16l-.15-.11a.74.74,0,0,0-.72-.23l-.15-.12-.22-.08-.32-.13-.14,0c.1-.32-.39-.58-.65-.43l-.55-.07-.15-.16h-.17c.06-.23-.31-.42-.49-.31l-.4,0-.11-.14a.8.8,0,0,0-.7-.21c.15-.27-.32-.49-.51-.29l-.13-.13c0-.25-.14-.33-.39-.22l0-.13c-.2-.62.19-1.2.1-1.81l.09-.17c.2-.08.24-.24.11-.47l.07-.22c.2-.09.23-.26.09-.49L222,60c.2-.09.23-.25.1-.49s0-.26.07-.34c.37-.33.27-.93.25-1.37,0-.09.07-.27.1-.36.2-.07.23-.22.08-.45,0-.15,0-.44.07-.58.29-.08.19-.6.09-.82l.08-.15c.25-.14.22-.62.09-.86l.05-.13.18-.15a.58.58,0,0,0,.5-.28c2.43-.44,5.48.35,7.51-.31v-.45s0-.09,0-.12l-.12-.46a.5.5,0,0,0,0-.12l0-.17c.26-.11.26-.21,0-.3,0-.11.11-.33.15-.45s0-.08,0-.1a2.22,2.22,0,0,0,0-.68c.24-.2,0-.8-.17-1l0-.17c.31.13.46-.49.14-.54V49c.25-.11.25-.21,0-.3a5.18,5.18,0,0,0,0-.88c.06-.28,0-.38-.32-.29a39.12,39.12,0,0,1-7.34-.06,1.22,1.22,0,0,1-.07-.17l-.11-.09L223,47l-.07-.14c.11-.23.17-.77-.13-.84v-.16a1.28,1.28,0,0,0-.05-.84h0c0-.1-.07-.31-.09-.41s.15-.59-.08-.64l-.08-.14a3.48,3.48,0,0,0-.25-1.6l-.06-.11a2.49,2.49,0,0,0-.35-1.28v-.28c0-.09-.11-.27-.14-.36l-.08-.14c.08-.55-.2-1.07-.16-1.62l.05-.15.14-.07.28-.27.1-.15.15,0,.32-.09.18-.08.18-.12H223c.23.06.68,0,.68-.33l.17,0,.15-.16a.77.77,0,0,0,.72-.22l.14-.1H225l.31-.18.21,0,.2-.08.15-.09a1.22,1.22,0,0,1,.17-.15l.16,0c.21.13.7,0,.68-.28l.18,0,.15-.17.15,0,.31-.07.2,0c.2,0,.4-.08.6-.13.1-.35.21-.88-.21-1.06l-.05-.18-.08-.19-.1-.13c.13-.21,0-.74-.29-.65l0-.21c0-.05-.07-.15-.1-.2l-.13-.14c.19-.19.09-.73-.22-.65l-.08-.18c.13-.21,0-.74-.29-.63a.67.67,0,0,0-.25-.6l-.11-.12v-.17l-.18-.36a.43.43,0,0,0-.23-.49c0-.28-.12-.29-.27-.05l-.14,0-.32.12-.21.09-.16.12h-.12c-.34.12-1.06,0-1.05.5l-.51.12c-.24-.09-.35,0-.35.23h-.17l-.29.17a.73.73,0,0,0-.6.21l-.12.15h-.15l-.33.09-.23.08-.13.16-.19,0c-.21,0-.74,0-.62.32l-.22.08-.16.11-.37.06a.77.77,0,0,0-.72,0l-.13-.12-.18-.11h-.13c.08-.18,0-.59-.27-.53l-.19-.29-.26-.17v-.19l-.09-.2-.15-.13c.11-.26,0-.4-.25-.41l-.06-.12c0-.23-.1-.66-.35-.69l-.2-.28-.23-.18c0-.09,0-.27-.07-.37l-.34-.18V27.8a1.39,1.39,0,0,0-.06-.19l-.1-.14a2.88,2.88,0,0,1-.27-.22,2.71,2.71,0,0,1-.13-.3c.16-.18-.17-.49-.35-.36l-.14-.28-.25-.24-.08-.27-.11-.05c0-.29-.07-.41-.35-.36,0-.08,0-.25,0-.33l0-.1c0-.15,0-.46,0-.61l.06-.18.09-.14.11-.13c1.6-1.59,3.28-3.15,4.77-4.83.27-.09.27-.18,0-.27v-.14a3.15,3.15,0,0,0-.29-.22l-.08-.11c.16-.23-.22-.55-.42-.37l-.07-.11a1.09,1.09,0,0,0-.79-.78L217.3,17l-.27-.22-.24-.28a1.08,1.08,0,0,0-.77-.76l-.07-.1a2.88,2.88,0,0,1-.27-.22c-.32-.33-.6-.89-1.13-.82a43.37,43.37,0,0,0-4.84,4.84l-.1.07a3.4,3.4,0,0,1-1.31.16l-.11-.11-.19-.07h-.14a.41.41,0,0,0-.43-.54l-.45-.17q.15-.39-.24-.33l-.41-.17c0-.44-.48-.54-.8-.69l-.42-.17c.2-.22-.25-.5-.4-.27l-.49-.19a1,1,0,0,0-.07-.15l-.39-.27c.1-.31-.42-.51-.67-.46h-.18c.11-.3-.35-.51-.59-.51l-.13-.13-.29-.2,0-.12c0-.44.1-.87.12-1.31l.1-.1.08-.18,0-.37c.26.21.48-.29.33-.49l0-.21c.31.09.39-.44.27-.65l.12-.14.07-.2V11.3c.33,0,.48-.46.32-.71l.1-.13.09-.18,0-.2c0-.08.08-.24.1-.32l.12-.15.08-.2V9.25c.32,0,.45-.45.33-.69l0-.15.14-.14,0-.13c.44-.45-.23-1-.71-.91l-.13,0-.17-.13L203.21,7c.07-.29-.43-.34-.62-.26h-.14l-.32-.18a.56.56,0,0,0-.6-.18s-.1-.13-.14-.16l-.17,0-.17-.12L200.86,6l-.32-.16h-.17l-.14-.11a.68.68,0,0,0-.59-.23l-.28-.16h-.16a1.1,1.1,0,0,0-.14-.09c-.32-.17-.6.19-.53.49-.05.08-.13.23-.18.3v.17l-.12.17-.07.19c-.25,0-.35.46-.24.67l0,.14c-.26,0-.35.12-.26.37s-.08.37-.11.49c-.28-.15-.47.34-.29.53l-.07.17c0,.08-.11.25-.15.33v.16c-.26-.06-.36,0-.27.32,0,.1-.05.3-.07.4-.32-.1-.43.45-.23.63l-.13.14-.09.18,0,.41-.11.13,0,.14c-.27-.08-.72.21-.62.51a8.47,8.47,0,0,0-1,0c.08-.47-.69-.42-1-.27l-.12-.1-.16-.08-.56-.07c-.27-.37-.81-.28-1.2-.32l-.36,0c-.08-.21-.24-.26-.49-.13l-.15-.06c-.06-.25-.5-.21-.68-.09l-.38-.08V11a.56.56,0,0,0-.63,0l-.54,0c-.09-.3-.6-.27-.83-.13l-.44-.11c.11-.24-.28-.48-.49-.5l-.1-.09c-.19-2.39-.15-4.95-.17-7.21l0-.16L186,2.73c-1.8-.39-4.09,0-6.11-.16a.76.76,0,0,0-.09.09m-5.49,18.51a3.14,3.14,0,0,0-.75,0c-.15-.14-.58-.12-.63.09l-.15.09c-.28-.16-.86-.1-.87.29l-.35,0c-.2-.09-.7,0-.61.28l-.23,0-.2.08-.13.1c-.17-.11-.62,0-.54.21l-.3.15-.16.29-.38.25c-.26-.14-.38-.07-.37.19l-.22.14a3.09,3.09,0,0,0-1.58,1.7l0,.16c-.19-.22-.61.05-.48.3,0,.08,0,.24-.06.32a1.15,1.15,0,0,1-.06.17,1.54,1.54,0,0,0-.48.67c-.3-.05-.51.4-.4.65,0,.09-.05.28-.07.38-.44.27-.43.9-.47,1.36v.3a6,6,0,0,0-.2,3.47l.06.11c-.16.25-.12.42.14.5,0,.13,0,.39,0,.52.12.4.09,1,.49,1.18l.08.37c-.08.27,0,.37.3.32l0,.14c-.2.17,0,.71.26.51l.09.18a1.11,1.11,0,0,1,.07.16.94.94,0,0,0,.39.58l.13.09.2.38a3,3,0,0,0,1.42,1.46.84.84,0,0,0,.51.26c-.23.25.2.6.44.42a1.24,1.24,0,0,0,.57.26l.16.23.3.18.19,0h.15c-.08.24.3.47.51.34l.35.05h.12l.17,0c.27.07.38,0,.34-.3a.47.47,0,0,0,.57-.42l.08-.11.44-.19.28-.12.19-.06c.27,0,.79-.15.76-.46l.23,0,.2-.07.13-.09.33-.12.2-.05.19-.1.14-.12c.27.21.87.13.86-.28h.33c.24.11.4.07.5-.12l.16-.08c.17.09.64.16.64-.11l.58,0c.48-.08,1.24.2,1.54-.16h.5c.39.37,1.26.06,1.84.17l0-.14a1.51,1.51,0,0,0,.77-.86l.07-.16.08-.18q.39.11.33-.33v-.17l.11-.12c.06-.11.18-.33.23-.44l.17-.3v-.17l.11-.13a.64.64,0,0,0,.19-.7c.41,0,.51-.59.29-.85l.11-.17a.8.8,0,0,0,.11-.83,2.48,2.48,0,0,0,0-.72c.29,0,.29-.74,0-.79a7,7,0,0,0,0-1.21c0-.09-.1-.26-.14-.34s0-.27,0-.36.11-.37-.08-.45l-.11-.21-.12-.16a.69.69,0,0,0-.19-.7,1.47,1.47,0,0,0-.1-.13l-.08-.35a1.06,1.06,0,0,0-.06-.19c0-.08-.14-.23-.19-.31.17-.24-.09-.65-.34-.7l-.12-.13c.09-.24,0-.35-.22-.34l-.07-.18c.12-.22-.25-.55-.43-.32,0-.08-.09-.23-.11-.31a1.09,1.09,0,0,0-.77-.78l-.07-.09-.3-.18a.89.89,0,0,0-.5-.45l-.12-.08-.44-.25c.22-.38-.39-.62-.66-.41l-.14-.05-.11-.1-.4-.31-.17-.06-.37,0c.09-.28,0-.37-.28-.29l-.54,0a.93.93,0,0,1-.14-.14l-.2-.1c-.1-.22-.26-.23-.49,0l-.39-.12c-.07-.2-.21-.23-.43-.09a5.62,5.62,0,0,0-.92,0,.86.86,0,0,0-1.11,0m27.25,12.54-.1.07c-.18-.11-.63-.18-.66.09l-.18.05c-.24-.12-.41-.09-.51.1l-.16.07-.34.09-.22.09a1,1,0,0,1-.14.15l-.5.09c-.23-.1-.34,0-.32.21l-.22.05c-.24-.05-.74.13-.63.44l-.35.1c0,.08-.14.22-.18.3l-.14,0a2.21,2.21,0,0,0-1.28,1.23.94.94,0,0,0-.1.1c-.55.21-1.18.77-1.13,1.4l-.33.31a2.25,2.25,0,0,0-.75,1.6l0,.13c-.36-.15-.45.46-.3.69l-.06.13c0,.1-.1.28-.14.38v.3c-.36.77-.66,2.15.08,2.77.07.09.2.29.26.38l.15.09,0,.16c-.13.2.09.72.35.47l.09.19a.85.85,0,0,0,.06.17,4,4,0,0,0,.26.56l.07.15.05.15c0,.08.1.25.14.33l.06.17.11.17,0,.38c-.06.24,0,.71.26.78l.07.23c-.11.23-.07.39.15.46l0,.38c-.08.18-.13.61.1.66l.07.16c-.13.28-.07.43.17.46l.11.09c.25.63.92.93,1.42,1.33l.29,0c0,.27.11.39.4.35h.14c-.05.28.06.38.33.29a1.59,1.59,0,0,0,.54.26l.16.06.19.06c-.1.33.43.45.65.3l.32,0c0,.32.47.47.69.28l.55.07c0,.22.19.27.43.15a9.73,9.73,0,0,0,1.08,0c0,.3.74.29.78,0a5.66,5.66,0,0,0,.92,0c.21.14.35.11.43-.09l.37-.1c.3.14.91.09,1-.29l.4,0c.16.14.58,0,.46-.26l.21-.07c.27.08.76-.14.66-.47l.16,0,.16-.12h.18c.29.05.4-.06.34-.33l.45-.17c.27,0,.33-.11.18-.35a3.5,3.5,0,0,0,1.63-1.53c.28.06.38-.06.29-.33l.27-.4c.22.19.53-.31.33-.48L212,49c.31.12.57-.39.44-.64s0-.29.07-.38l.1-.13a1,1,0,0,0,.22-.75l.16-.29v-.15c.22-.11.26-.29.1-.54l.1-.16c.22-.06.24-.49.1-.65a3,3,0,0,0,0-.73c.28-.12.28-.83,0-.95a3.06,3.06,0,0,0,0-.74c.13-.14.13-.57-.07-.62l-.11-.35c.16-.25.14-.42-.07-.51l-.1-.2-.14-.14c0-.14,0-.41,0-.54.15-.18,0-.59-.29-.45l-.06-.19a1,1,0,0,1-.06-.16,3.29,3.29,0,0,0-.29-.56L212,39c0-.08-.06-.23-.09-.31l-.28-.2a.42.42,0,0,0-.22-.51l-.25-.16a.93.93,0,0,0-.27-.46,2,2,0,0,0-1.11-1.09.89.89,0,0,0-.57-.37c0-.52-.62-.72-1-.82L208,35l-.15-.06-.16-.07-.19-.08-.2-.09-.14-.13-.13-.1-.2-.07-.16,0c0-.4-.58-.49-.86-.3l-.19-.1-.3-.12H205l-.16,0c-.94-.54-2.33-.3-3.3-.18M179.11,40.5l-.11.08c-.18-.16-.64-.16-.68.12H178c-.26-.14-.44-.09-.52.16l-.14.06c-.23-.2-.85-.1-.71.29l-.54.06c-.26-.07-.78.11-.74.42l-.39.11c-.23-.19-.69.16-.5.42l-.15,0c-.34.14-.87.21-.9.68l-.27.09a7.28,7.28,0,0,0-2.19,2.23l-.15.2a3.3,3.3,0,0,0-1.29,1.43l-.18.19a3,3,0,0,0-1.12,1.23l-.23.27a5.11,5.11,0,0,0-1.46,1.62l-.11.25a1.85,1.85,0,0,0-1.08,1.09,1,1,0,0,0-.43.63,1.74,1.74,0,0,0-1.1,1.07.78.78,0,0,0-.27.45,1.79,1.79,0,0,0-1.09,1.08,1.19,1.19,0,0,0-.44.55c-.89.35-1.33,1.28-2,1.88-8.24,9.5-17.06,18.67-25,28.31l-.14.2c-.46.36-1.05.74-1.22,1.33,0,0-.11.14-.15.19a3.42,3.42,0,0,0-1.23,1.33,1,1,0,0,0-.27.4,1.67,1.67,0,0,0-.92.94c-.14.19-.26.4-.39.6a2.14,2.14,0,0,0-1.2,1.2,1.12,1.12,0,0,0-.37.49,3.43,3.43,0,0,0-1.42,1.48l-.12.25a2.37,2.37,0,0,0-1.24,1.27l-.12.2A10.82,10.82,0,0,0,123.72,98a6.33,6.33,0,0,0-.39.61,1.79,1.79,0,0,0-1.14,1.09,1.45,1.45,0,0,0-.3.39c-.49.38-1.14.8-1.26,1.43v.12a3,3,0,0,0-1.48,1.47l-.13.2a14.94,14.94,0,0,0-2.76,3l-.14.31-.14.11-.08.05c-.34-.09-.38.63,0,.53a.6.6,0,0,0,.62,0q1.18,0,2.37,0l0-.17c6.54.11,13.12-.24,19.62.18l.3,0a.57.57,0,0,0,.68,0c.19.17.75.24.79-.07l.23-.16a2.14,2.14,0,0,0,1.19-1.19c.64-.27,1-.91,1.54-1.36a1.22,1.22,0,0,0,.84-.85,9.13,9.13,0,0,0,1.9-1.73.56.56,0,0,0,.61-.62A6.66,6.66,0,0,0,148.1,100a3,3,0,0,0,1.3-1.25,12.26,12.26,0,0,0,1.6-1.46,2.22,2.22,0,0,0,1.11-1.09,2.36,2.36,0,0,0,.9-.82c.29.08.4,0,.34-.31l.23-.2a.59.59,0,0,0,.59-.63,12.79,12.79,0,0,0,2.1-1.87,1.24,1.24,0,0,0,.77-.76,10.5,10.5,0,0,0,1.6-1.46,1.65,1.65,0,0,0,1-.92A7.91,7.91,0,0,0,161,87.89a1.28,1.28,0,0,0,.83-.85,13.35,13.35,0,0,0,2.09-1.9.61.61,0,0,0,.6-.62,1.84,1.84,0,0,0,.79-.62c2.27-1.43,4-3.74,6.13-5.42,6.28-6.06,12.87-11.83,19-18,1.25-1.7,2.58-3.69,2.36-5.89,0-.14.06-.43.09-.57l.13,0a20.69,20.69,0,0,1,0-2.49l-.13.06c0-.15-.07-.45-.1-.6.16-.15.19-.62-.06-.65l-.08-.16c.14-.24.11-.4-.09-.49l-.07-.21-.15-.33c0-.13,0-.4,0-.54s-.05-.57-.28-.45L192,48l-.08-.2-.1-.13-.15-.15v-.16c0-.05,0-.15-.06-.2a3.14,3.14,0,0,0-.18-.31l-.26-.19V46.5a1.46,1.46,0,0,1-.05-.2L191,46l-.24-.2-.14-.29c.17-.21-.18-.55-.39-.39,0-.26-.25-.39-.43-.53l-.1-.11-.24-.33-.28-.21a1.07,1.07,0,0,0-.74-.55c.13-.25.06-.36-.2-.34l-.11-.12-.35-.19h-.13c.06-.27-.06-.39-.34-.36h-.17l-.08-.14L186.6,42l-.19-.07-.13,0-.16-.14-.15-.11-.2-.08-.15,0-.32-.17a.57.57,0,0,0-.6-.23c.08-.38-.57-.42-.79-.23l-.14-.09-.38-.16h-.5c-.09-.25-.25-.29-.5-.12l-.12-.07c-.43-.29-1.09,0-1.61-.12h-.1c-.47.06-1.06-.16-1.45.11M160.3,48.33l-.32.06c-.24-.17-.41-.13-.5.13l-.17,0-.31.12-.23.07-.14.14-.31.05c-.54,0-1.38.25-1.55.79l-.33.07-.19.29h-.18c-.29-.06-.39,0-.28.32a.75.75,0,0,0-.49.27A2.79,2.79,0,0,0,153.94,52l-.11.31c-.18-.23-.56.08-.42.31,0,.07,0,.23-.07.3l-.27.21c0,.09,0,.27-.06.36l-.14.13,0,.14-.25.22c0,.13-.07.38-.09.5-.27-.18-.49.31-.29.5l-.08.14c-1.33,1.94-1.43,5.46.36,7.12a53.84,53.84,0,0,0,6.23-7,3,3,0,0,0,.75-1c.25.16.65-.21.44-.46a2.25,2.25,0,0,0,.85-.91,1.68,1.68,0,0,0,.91-1,2,2,0,0,0,.68-.88c.27.07.37,0,.3-.31a3.4,3.4,0,0,0,1-1.08c.93-.17,1-1.61-.15-1.32l-.16-.05a1.41,1.41,0,0,0-1.16,0c-.12,0-.37,0-.49,0-.44.08-1.08-.16-1.39.15M192.82,61c-4,4.46-8.84,8.24-12.95,12.53.51,4.41,5,8,9.35,8.24,6.08.6,11.78-5.1,11.45-11.14A11,11,0,0,0,192.82,61M91.39,109.75l-.36.1-.27.11-.59.09c-.14-.2-.57,0-.41.24a.76.76,0,0,0-.6.22,1.21,1.21,0,0,1-.1.14l-.2.08-.17,0-.3.08c-.66.42-1.56.9-1.73,1.71l-.08.16c-.27-.26-.6.25-.47.51v.15l-.13.16,0,.15c-.26-.12-.6.31-.38.53,0,.13-.08.38-.1.51l-.15.13-.09.21q-.3.15-.09.51c0,.1-.07.28-.09.37-.2.07-.23.21-.09.44a5.68,5.68,0,0,0,0,.72v.12a6.73,6.73,0,0,0,0,.89c-.15.22-.11.36.09.44,0,.1.08.29.11.38-.18.25-.14.41.1.49l.07.18a1,1,0,0,1,.06.16.66.66,0,0,0,.28.56c-.17.28.06.9.44.8v.18c-.1.24.19.63.45.53l.09.13a1.7,1.7,0,0,0,1.07,1.16l.27.1.17.27.31.06q0,.39.39.24L89,124l.19.1h.18c-.17.28.31.5.5.31l.34,0,.14.14.22.08c.1.2.26.22.48,0l.37.14c0,.2.48.21.62.06.64,0,1.27,0,1.91,0,.16.16.54-.07.41-.28a59.07,59.07,0,0,1,.06-7.87l.13-.08.3-.22a7.55,7.55,0,0,0,.9-.25v0h.17c16-.15,32.33,0,48.46-.06,1.06.35,2.21,0,3.27.37l.19.2a1,1,0,0,0,.07.15l0,.33c-.11,2.18.55,4.29,0,6.47.08.43-.25,1.17.31,1.33,1.24-.06,2.48,0,3.72,0a.67.67,0,0,0,.83-.07l.15-.1c.34.12,1,.16,1.06-.29h.14c.24.1.71,0,.68-.32H155c.26,0,.73-.12.69-.43a1.17,1.17,0,0,0,.53-.4,1.91,1.91,0,0,0,1.13-1.18l.26-.14a1.14,1.14,0,0,0,.58-1,.49.49,0,0,0,.22-.63s.1-.11.14-.14V120a.93.93,0,0,0,.13-.15l.09-.19.13-.32.06-.16a5.76,5.76,0,0,0,.17-3.11l-.07-.13c.13-.25.08-.39-.14-.45v-.19l-.12-.37-.07-.12c0-.43-.14-1.18-.67-1.21l0-.19c0-.3-.08-.39-.37-.27a2,2,0,0,0-.23-.51,3.14,3.14,0,0,0-1.74-1.58l-.43-.23c.08-.37-.54-.51-.81-.41l-.16,0-.18-.15-.18-.06-.34-.13-.18,0c-.07-.21-.23-.26-.47-.13l-.12-.06c-20.38.12-41.2.16-61.51,0m5.78,8.71-.34.06-.13-.08a35.26,35.26,0,0,1,0,6.25l.31.18a16.23,16.23,0,0,0,2.51-.2c15.28.11,30.6-.19,45.85.17.24.13.43-.3.25-.46a1.15,1.15,0,0,0,0-1l-.11-.1c0-.51,0-1,0-1.53l.14-.07c.08-.72-.3-1.4-.16-2.13l.2-.25c0-.34,0-.93-.49-.82a1.3,1.3,0,0,0-1.37,0c-.22,0-.44,0-.66,0-.14-.25-.22-.24-.27.05l-.28.07-.11,0-.15,0c-14.32-.2-29.07-.21-43.37,0l-.31,0c.16-.31-.5-.46-.5-.11a5.3,5.3,0,0,0-.89,0Z"/></svg>